<svg width="1024" height="1024" viewBox="0 0 1024 1024" fill="none" xmlns="http://www.w3.org/2000/svg">
<path d="M170.584 802.54C163.192 802.54 156.621 801.513 150.872 799.46C145.123 797.407 139.63 794.019 134.394 789.296C133.265 788.475 132.392 787.499 131.776 786.37C131.263 785.138 131.006 783.906 131.006 782.674C131.006 780.723 131.725 778.978 133.162 777.438C134.599 775.898 136.396 775.128 138.552 775.128C140.195 775.128 141.735 775.693 143.172 776.822C147.073 780.415 151.129 783.136 155.338 784.984C159.65 786.832 164.681 787.756 170.43 787.756C174.537 787.756 178.284 787.089 181.672 785.754C185.163 784.419 187.935 782.623 189.988 780.364C192.041 778.105 193.068 775.487 193.068 772.51C193.068 768.814 191.99 765.785 189.834 763.424C187.781 760.96 184.752 758.958 180.748 757.418C176.847 755.775 172.124 754.389 166.58 753.26C161.447 752.336 156.827 751.053 152.72 749.41C148.716 747.767 145.277 745.714 142.402 743.25C139.527 740.683 137.32 737.655 135.78 734.164C134.24 730.673 133.47 726.618 133.47 721.998C133.47 715.735 135.113 710.345 138.398 705.828C141.683 701.311 146.149 697.82 151.796 695.356C157.443 692.892 163.808 691.66 170.892 691.66C177.36 691.66 183.417 692.687 189.064 694.74C194.711 696.691 199.279 699.36 202.77 702.748C205.234 704.904 206.466 707.214 206.466 709.678C206.466 711.526 205.696 713.271 204.156 714.914C202.719 716.454 201.025 717.224 199.074 717.224C197.637 717.224 196.405 716.813 195.378 715.992C193.735 714.247 191.528 712.707 188.756 711.372C185.984 709.935 183.007 708.754 179.824 707.83C176.744 706.906 173.767 706.444 170.892 706.444C166.272 706.444 162.319 707.111 159.034 708.446C155.749 709.678 153.233 711.423 151.488 713.682C149.743 715.838 148.87 718.405 148.87 721.382C148.87 724.873 149.845 727.747 151.796 730.006C153.849 732.265 156.673 734.113 160.266 735.55C163.859 736.885 167.966 738.117 172.586 739.246C178.233 740.478 183.263 741.864 187.678 743.404C192.195 744.944 195.994 746.946 199.074 749.41C202.154 751.771 204.515 754.749 206.158 758.342C207.801 761.935 208.622 766.401 208.622 771.74C208.622 777.9 206.877 783.29 203.386 787.91C199.895 792.53 195.275 796.123 189.526 798.69C183.879 801.257 177.565 802.54 170.584 802.54ZM286.232 719.996C288.388 719.996 290.185 720.766 291.622 722.306C293.162 723.743 293.932 725.591 293.932 727.85V768.352C293.932 779.029 290.955 787.397 285 793.454C279.045 799.409 270.627 802.386 259.744 802.386C248.964 802.386 240.597 799.409 234.642 793.454C228.79 787.397 225.864 779.029 225.864 768.352V727.85C225.864 725.591 226.583 723.743 228.02 722.306C229.457 720.766 231.305 719.996 233.564 719.996C235.72 719.996 237.517 720.766 238.954 722.306C240.494 723.743 241.264 725.591 241.264 727.85V768.352C241.264 775.025 242.804 780.005 245.884 783.29C249.067 786.575 253.687 788.218 259.744 788.218C265.904 788.218 270.575 786.575 273.758 783.29C276.941 780.005 278.532 775.025 278.532 768.352V727.85C278.532 725.591 279.251 723.743 280.688 722.306C282.125 720.766 283.973 719.996 286.232 719.996ZM323.046 801C320.788 801 318.94 800.281 317.502 798.844C316.065 797.304 315.346 795.405 315.346 793.146V727.85C315.346 725.591 316.065 723.743 317.502 722.306C318.94 720.766 320.788 719.996 323.046 719.996C325.202 719.996 326.999 720.766 328.436 722.306C329.976 723.743 330.746 725.591 330.746 727.85V745.098L329.206 738.476C330.028 735.601 331.26 732.932 332.902 730.468C334.648 728.004 336.701 725.848 339.062 724C341.424 722.152 344.042 720.715 346.916 719.688C349.894 718.661 352.974 718.148 356.156 718.148C358.826 718.148 361.136 718.867 363.086 720.304C365.037 721.741 366.012 723.538 366.012 725.694C366.012 728.466 365.294 730.519 363.856 731.854C362.419 733.086 360.828 733.702 359.082 733.702C357.542 733.702 356.054 733.394 354.616 732.778C353.179 732.059 351.485 731.7 349.534 731.7C347.378 731.7 345.171 732.265 342.912 733.394C340.654 734.523 338.6 736.217 336.752 738.476C334.904 740.632 333.416 743.199 332.286 746.176C331.26 749.153 330.746 752.49 330.746 756.186V793.146C330.746 795.405 329.976 797.304 328.436 798.844C326.999 800.281 325.202 801 323.046 801ZM439.928 719.38C442.186 719.38 444.034 720.15 445.472 721.69C446.909 723.127 447.628 724.975 447.628 727.234V793.454C447.628 802.489 445.882 809.829 442.392 815.476C439.004 821.123 434.384 825.229 428.532 827.796C422.782 830.465 416.263 831.8 408.974 831.8C405.278 831.8 401.582 831.441 397.886 830.722C394.19 830.106 391.161 829.182 388.8 827.95C386.336 826.821 384.59 825.435 383.564 823.792C382.537 822.149 382.383 820.353 383.102 818.402C383.82 815.938 385.052 814.244 386.798 813.32C388.543 812.499 390.34 812.447 392.188 813.166C393.933 813.885 396.243 814.809 399.118 815.938C401.992 817.067 405.278 817.632 408.974 817.632C414.004 817.632 418.265 816.811 421.756 815.168C425.246 813.525 427.864 810.959 429.61 807.468C431.458 803.977 432.382 799.46 432.382 793.916V783.29L434.846 786.986C433.203 790.374 431.047 793.197 428.378 795.456C425.708 797.715 422.526 799.46 418.83 800.692C415.236 801.924 411.232 802.54 406.818 802.54C401.171 802.54 396.294 801.308 392.188 798.844C388.184 796.277 385.104 792.787 382.948 788.372C380.792 783.855 379.714 778.721 379.714 772.972V727.234C379.714 724.975 380.432 723.127 381.87 721.69C383.307 720.15 385.155 719.38 387.414 719.38C389.57 719.38 391.366 720.15 392.804 721.69C394.344 723.127 395.114 724.975 395.114 727.234V768.814C395.114 775.59 396.602 780.569 399.58 783.752C402.557 786.832 406.972 788.372 412.824 788.372C416.725 788.372 420.113 787.551 422.988 785.908C425.862 784.265 428.121 782.007 429.764 779.132C431.406 776.155 432.228 772.715 432.228 768.814V727.234C432.228 724.975 432.946 723.127 434.384 721.69C435.924 720.15 437.772 719.38 439.928 719.38ZM535.57 718.764C537.829 718.764 539.677 719.534 541.114 721.074C542.551 722.511 543.27 724.359 543.27 726.618V793.146C543.27 795.405 542.551 797.304 541.114 798.844C539.677 800.281 537.829 801 535.57 801C533.414 801 531.566 800.281 530.026 798.844C528.589 797.304 527.87 795.405 527.87 793.146V782.058L531.104 782.52C531.104 784.368 530.334 786.421 528.794 788.68C527.357 790.939 525.355 793.146 522.788 795.302C520.221 797.355 517.193 799.101 513.702 800.538C510.211 801.873 506.464 802.54 502.46 802.54C495.376 802.54 489.011 800.743 483.364 797.15C477.717 793.454 473.251 788.423 469.966 782.058C466.681 775.693 465.038 768.455 465.038 760.344C465.038 752.028 466.681 744.739 469.966 738.476C473.251 732.111 477.666 727.131 483.21 723.538C488.857 719.945 495.119 718.148 501.998 718.148C506.413 718.148 510.468 718.867 514.164 720.304C517.963 721.741 521.248 723.589 524.02 725.848C526.792 728.107 528.897 730.519 530.334 733.086C531.874 735.55 532.644 737.911 532.644 740.17L527.87 740.632V726.618C527.87 724.462 528.589 722.614 530.026 721.074C531.566 719.534 533.414 718.764 535.57 718.764ZM504.154 788.372C508.979 788.372 513.24 787.14 516.936 784.676C520.632 782.212 523.507 778.875 525.56 774.666C527.613 770.354 528.64 765.58 528.64 760.344C528.64 755.005 527.613 750.231 525.56 746.022C523.507 741.813 520.632 738.476 516.936 736.012C513.24 733.548 508.979 732.316 504.154 732.316C499.431 732.316 495.222 733.548 491.526 736.012C487.933 738.476 485.058 741.813 482.902 746.022C480.849 750.231 479.822 755.005 479.822 760.344C479.822 765.58 480.849 770.354 482.902 774.666C485.058 778.875 487.933 782.212 491.526 784.676C495.222 787.14 499.431 788.372 504.154 788.372Z" fill="#F29342"/>
<path d="M560.07 788.372C559.146 786.935 558.736 785.292 558.838 783.444C558.941 781.493 560.019 779.851 562.072 778.516C563.51 777.592 564.998 777.233 566.538 777.438C568.181 777.541 569.721 778.311 571.158 779.748C574.033 782.931 577.216 785.446 580.706 787.294C584.3 789.142 588.612 790.066 593.642 790.066C595.696 789.963 597.8 789.655 599.956 789.142C602.112 788.526 603.96 787.499 605.5 786.062C607.04 784.522 607.81 782.315 607.81 779.44C607.81 776.873 606.989 774.82 605.346 773.28C603.704 771.74 601.548 770.508 598.878 769.584C596.209 768.557 593.334 767.633 590.254 766.812C586.969 765.888 583.632 764.861 580.244 763.732C576.959 762.603 573.982 761.165 571.312 759.42C568.643 757.572 566.436 755.211 564.69 752.336C563.048 749.461 562.226 745.919 562.226 741.71C562.226 736.885 563.561 732.727 566.23 729.236C569.002 725.745 572.544 723.025 576.856 721.074C581.271 719.123 586.045 718.148 591.178 718.148C594.156 718.148 597.287 718.559 600.572 719.38C603.858 720.099 607.04 721.279 610.12 722.922C613.2 724.565 615.87 726.721 618.128 729.39C619.155 730.725 619.72 732.316 619.822 734.164C620.028 736.012 619.206 737.655 617.358 739.092C616.126 740.119 614.638 740.581 612.892 740.478C611.147 740.375 609.71 739.811 608.58 738.784C606.63 736.32 604.114 734.421 601.034 733.086C597.954 731.649 594.464 730.93 590.562 730.93C588.612 730.93 586.558 731.238 584.402 731.854C582.349 732.367 580.604 733.343 579.166 734.78C577.729 736.217 577.01 738.322 577.01 741.094C577.01 743.661 577.832 745.714 579.474 747.254C581.22 748.794 583.478 750.077 586.25 751.104C589.022 752.131 592.051 753.055 595.336 753.876C598.519 754.697 601.65 755.673 604.73 756.802C607.913 757.931 610.736 759.42 613.2 761.268C615.767 763.013 617.82 765.323 619.36 768.198C621.003 770.97 621.824 774.512 621.824 778.824C621.824 783.855 620.336 788.167 617.358 791.76C614.484 795.251 610.788 797.92 606.27 799.768C601.856 801.616 597.184 802.54 592.256 802.54C586.404 802.54 580.552 801.513 574.7 799.46C568.951 797.304 564.074 793.608 560.07 788.372ZM705.963 718.764C708.221 718.764 710.069 719.534 711.507 721.074C712.944 722.511 713.663 724.359 713.663 726.618V793.146C713.663 795.405 712.944 797.304 711.507 798.844C710.069 800.281 708.221 801 705.963 801C703.807 801 701.959 800.281 700.419 798.844C698.981 797.304 698.263 795.405 698.263 793.146V782.058L701.497 782.52C701.497 784.368 700.727 786.421 699.187 788.68C697.749 790.939 695.747 793.146 693.181 795.302C690.614 797.355 687.585 799.101 684.095 800.538C680.604 801.873 676.857 802.54 672.853 802.54C665.769 802.54 659.403 800.743 653.757 797.15C648.11 793.454 643.644 788.423 640.359 782.058C637.073 775.693 635.431 768.455 635.431 760.344C635.431 752.028 637.073 744.739 640.359 738.476C643.644 732.111 648.059 727.131 653.603 723.538C659.249 719.945 665.512 718.148 672.391 718.148C676.805 718.148 680.861 718.867 684.557 720.304C688.355 721.741 691.641 723.589 694.413 725.848C697.185 728.107 699.289 730.519 700.727 733.086C702.267 735.55 703.037 737.911 703.037 740.17L698.263 740.632V726.618C698.263 724.462 698.981 722.614 700.419 721.074C701.959 719.534 703.807 718.764 705.963 718.764ZM674.547 788.372C679.372 788.372 683.633 787.14 687.329 784.676C691.025 782.212 693.899 778.875 695.953 774.666C698.006 770.354 699.033 765.58 699.033 760.344C699.033 755.005 698.006 750.231 695.953 746.022C693.899 741.813 691.025 738.476 687.329 736.012C683.633 733.548 679.372 732.316 674.547 732.316C669.824 732.316 665.615 733.548 661.919 736.012C658.325 738.476 655.451 741.813 653.295 746.022C651.241 750.231 650.215 755.005 650.215 760.344C650.215 765.58 651.241 770.354 653.295 774.666C655.451 778.875 658.325 782.212 661.919 784.676C665.615 787.14 669.824 788.372 674.547 788.372ZM734.159 720.92H770.349C772.402 720.92 774.096 721.639 775.431 723.076C776.868 724.411 777.587 726.105 777.587 728.158C777.587 730.109 776.868 731.751 775.431 733.086C774.096 734.421 772.402 735.088 770.349 735.088H734.159C732.106 735.088 730.36 734.421 728.923 733.086C727.588 731.649 726.921 729.955 726.921 728.004C726.921 725.951 727.588 724.257 728.923 722.922C730.36 721.587 732.106 720.92 734.159 720.92ZM750.329 700.9C752.588 700.9 754.436 701.67 755.873 703.21C757.31 704.647 758.029 706.495 758.029 708.754V780.21C758.029 782.058 758.337 783.547 758.953 784.676C759.569 785.805 760.39 786.575 761.417 786.986C762.546 787.397 763.676 787.602 764.805 787.602C765.934 787.602 766.91 787.397 767.731 786.986C768.655 786.575 769.733 786.37 770.965 786.37C772.197 786.37 773.326 786.935 774.353 788.064C775.38 789.193 775.893 790.733 775.893 792.684C775.893 795.148 774.558 797.15 771.889 798.69C769.22 800.23 766.345 801 763.265 801C761.52 801 759.466 800.846 757.105 800.538C754.744 800.23 752.434 799.46 750.175 798.228C748.019 796.996 746.222 795.045 744.785 792.376C743.348 789.604 742.629 785.754 742.629 780.826V708.754C742.629 706.495 743.348 704.647 744.785 703.21C746.325 701.67 748.173 700.9 750.329 700.9ZM835.451 718.61C842.535 718.61 848.028 720.15 851.929 723.23C855.831 726.207 858.551 730.263 860.091 735.396C861.734 740.529 862.555 746.176 862.555 752.336V793.146C862.555 795.405 861.785 797.304 860.245 798.844C858.808 800.281 857.011 801 854.855 801C852.597 801 850.749 800.281 849.311 798.844C847.874 797.304 847.155 795.405 847.155 793.146V752.336C847.155 748.743 846.642 745.457 845.615 742.48C844.691 739.503 842.997 737.141 840.533 735.396C838.172 733.651 834.835 732.778 830.523 732.778C826.519 732.778 822.926 733.651 819.743 735.396C816.663 737.141 814.251 739.503 812.505 742.48C810.863 745.457 810.041 748.743 810.041 752.336V793.146C810.041 795.405 809.271 797.304 807.731 798.844C806.294 800.281 804.497 801 802.341 801C800.083 801 798.235 800.281 796.797 798.844C795.36 797.304 794.641 795.405 794.641 793.146V694.894C794.641 692.635 795.36 690.787 796.797 689.35C798.235 687.81 800.083 687.04 802.341 687.04C804.497 687.04 806.294 687.81 807.731 689.35C809.271 690.787 810.041 692.635 810.041 694.894V736.936L807.269 738.476C807.988 736.217 809.169 733.907 810.811 731.546C812.557 729.185 814.661 727.029 817.125 725.078C819.692 723.127 822.515 721.587 825.595 720.458C828.675 719.226 831.961 718.61 835.451 718.61ZM898.449 793.146C898.449 795.405 897.731 797.304 896.293 798.844C894.856 800.281 893.008 801 890.749 801C888.593 801 886.745 800.281 885.205 798.844C883.768 797.304 883.049 795.405 883.049 793.146V727.234C883.049 724.975 883.768 723.127 885.205 721.69C886.745 720.15 888.593 719.38 890.749 719.38C893.008 719.38 894.856 720.15 896.293 721.69C897.731 723.127 898.449 724.975 898.449 727.234V793.146ZM890.595 709.216C887.618 709.216 885.462 708.703 884.127 707.676C882.793 706.547 882.125 704.699 882.125 702.132V699.668C882.125 697.101 882.844 695.305 884.281 694.278C885.719 693.251 887.875 692.738 890.749 692.738C893.829 692.738 896.037 693.303 897.371 694.432C898.706 695.459 899.373 697.204 899.373 699.668V702.132C899.373 704.801 898.655 706.649 897.217 707.676C895.883 708.703 893.675 709.216 890.595 709.216Z" fill="#4CA771"/>
<path d="M604.672 842.8H637.888C639.232 842.8 640.352 843.248 641.248 844.144C642.208 845.04 642.688 846.16 642.688 847.504C642.688 848.848 642.208 849.936 641.248 850.768C640.352 851.6 639.232 852.016 637.888 852.016H608.896L609.856 850.384V871.888L608.992 870.928H633.568C634.912 870.928 636.032 871.376 636.928 872.272C637.888 873.168 638.368 874.32 638.368 875.728C638.368 877.072 637.888 878.16 636.928 878.992C636.032 879.824 634.912 880.24 633.568 880.24H609.184L609.856 879.376V901.552L609.184 900.784H637.888C639.232 900.784 640.352 901.264 641.248 902.224C642.208 903.12 642.688 904.176 642.688 905.392C642.688 906.736 642.208 907.856 641.248 908.752C640.352 909.584 639.232 910 637.888 910H604.672C603.328 910 602.176 909.552 601.216 908.656C600.256 907.696 599.776 906.512 599.776 905.104V847.696C599.776 846.288 600.256 845.136 601.216 844.24C602.176 843.28 603.328 842.8 604.672 842.8ZM679.58 858.352C684.124 858.352 687.644 859.312 690.14 861.232C692.636 863.088 694.364 865.616 695.324 868.816C696.348 871.952 696.86 875.472 696.86 879.376V905.104C696.86 906.512 696.38 907.696 695.42 908.656C694.524 909.552 693.404 910 692.06 910C690.652 910 689.5 909.552 688.604 908.656C687.708 907.696 687.26 906.512 687.26 905.104V879.472C687.26 877.168 686.94 875.12 686.3 873.328C685.66 871.472 684.54 870 682.94 868.912C681.404 867.76 679.228 867.184 676.412 867.184C673.788 867.184 671.484 867.76 669.5 868.912C667.516 870 665.948 871.472 664.796 873.328C663.708 875.12 663.164 877.168 663.164 879.472V905.104C663.164 906.512 662.684 907.696 661.724 908.656C660.828 909.552 659.708 910 658.364 910C656.956 910 655.804 909.552 654.908 908.656C654.012 907.696 653.564 906.512 653.564 905.104V864.4C653.564 862.992 654.012 861.84 654.908 860.944C655.804 859.984 656.956 859.504 658.364 859.504C659.708 859.504 660.828 859.984 661.724 860.944C662.684 861.84 663.164 862.992 663.164 864.4V869.776L661.436 870.736C661.884 869.328 662.652 867.92 663.74 866.512C664.892 865.04 666.268 863.696 667.868 862.48C669.468 861.2 671.26 860.208 673.244 859.504C675.228 858.736 677.34 858.352 679.58 858.352ZM733.709 910.96C728.397 910.96 723.789 909.872 719.885 907.696C715.981 905.456 712.941 902.416 710.765 898.576C708.653 894.672 707.597 890.224 707.597 885.232C707.597 879.6 708.717 874.8 710.957 870.832C713.261 866.8 716.237 863.728 719.885 861.616C723.533 859.44 727.405 858.352 731.501 858.352C734.637 858.352 737.613 858.992 740.429 860.272C743.245 861.488 745.741 863.216 747.917 865.456C750.157 867.632 751.917 870.224 753.197 873.232C754.477 876.176 755.149 879.408 755.213 882.928C755.149 884.208 754.637 885.264 753.677 886.096C752.717 886.928 751.597 887.344 750.317 887.344H712.973L710.669 879.184H746.765L744.941 880.912V878.512C744.813 876.272 744.077 874.32 742.733 872.656C741.389 870.928 739.725 869.616 737.741 868.72C735.757 867.76 733.677 867.28 731.501 867.28C729.581 867.28 727.725 867.6 725.933 868.24C724.205 868.816 722.637 869.776 721.229 871.12C719.885 872.464 718.797 874.256 717.965 876.496C717.197 878.672 716.813 881.392 716.813 884.656C716.813 888.176 717.549 891.248 719.021 893.872C720.493 896.496 722.477 898.544 724.973 900.016C727.469 901.424 730.221 902.128 733.229 902.128C735.597 902.128 737.549 901.904 739.085 901.456C740.621 900.944 741.901 900.336 742.925 899.632C743.949 898.928 744.845 898.256 745.613 897.616C746.573 897.04 747.533 896.752 748.493 896.752C749.645 896.752 750.605 897.168 751.373 898C752.141 898.768 752.525 899.696 752.525 900.784C752.525 902.192 751.821 903.472 750.413 904.624C748.685 906.288 746.285 907.76 743.213 909.04C740.205 910.32 737.037 910.96 733.709 910.96ZM770.864 910C769.456 910 768.304 909.552 767.408 908.656C766.512 907.696 766.064 906.512 766.064 905.104V864.4C766.064 862.992 766.512 861.84 767.408 860.944C768.304 859.984 769.456 859.504 770.864 859.504C772.208 859.504 773.328 859.984 774.224 860.944C775.184 861.84 775.664 862.992 775.664 864.4V875.152L774.704 871.024C775.216 869.232 775.984 867.568 777.008 866.032C778.096 864.496 779.376 863.152 780.848 862C782.32 860.848 783.952 859.952 785.744 859.312C787.6 858.672 789.52 858.352 791.504 858.352C793.168 858.352 794.608 858.8 795.824 859.696C797.04 860.592 797.648 861.712 797.648 863.056C797.648 864.784 797.2 866.064 796.304 866.896C795.408 867.664 794.416 868.048 793.328 868.048C792.368 868.048 791.44 867.856 790.544 867.472C789.648 867.024 788.592 866.8 787.376 866.8C786.032 866.8 784.656 867.152 783.248 867.856C781.84 868.56 780.56 869.616 779.408 871.024C778.256 872.368 777.328 873.968 776.624 875.824C775.984 877.68 775.664 879.76 775.664 882.064V905.104C775.664 906.512 775.184 907.696 774.224 908.656C773.328 909.552 772.208 910 770.864 910ZM825.807 858.352C828.559 858.352 831.087 858.8 833.391 859.696C835.695 860.592 837.679 861.744 839.343 863.152C841.071 864.496 842.415 865.904 843.375 867.376C844.335 868.848 844.815 870.128 844.815 871.216L842.607 871.312V863.632C842.607 862.288 843.055 861.136 843.951 860.176C844.847 859.216 845.999 858.736 847.406 858.736C848.815 858.736 849.967 859.216 850.863 860.176C851.759 861.072 852.207 862.224 852.207 863.632V905.968C852.207 911.408 851.055 915.824 848.75 919.216C846.447 922.672 843.375 925.2 839.535 926.8C835.759 928.4 831.599 929.2 827.055 929.2C825.455 929.2 823.567 928.976 821.391 928.528C819.215 928.144 817.199 927.664 815.343 927.088C813.551 926.512 812.303 925.936 811.599 925.36C810.127 924.592 809.135 923.696 808.623 922.672C808.175 921.648 808.175 920.624 808.623 919.6C809.263 918.192 810.127 917.328 811.215 917.008C812.303 916.688 813.551 916.784 814.959 917.296C815.599 917.488 816.591 917.84 817.935 918.352C819.279 918.864 820.783 919.312 822.447 919.696C824.111 920.144 825.679 920.368 827.151 920.368C832.271 920.368 836.111 919.184 838.671 916.816C841.295 914.448 842.607 911.216 842.607 907.12V898.48L843.663 899.152C843.471 900.496 842.863 901.872 841.839 903.28C840.879 904.624 839.599 905.872 837.999 907.024C836.399 908.176 834.543 909.136 832.431 909.904C830.383 910.608 828.271 910.96 826.095 910.96C821.551 910.96 817.487 909.84 813.903 907.6C810.319 905.296 807.471 902.192 805.359 898.288C803.247 894.32 802.191 889.776 802.191 884.656C802.191 879.536 803.247 875.024 805.359 871.12C807.471 867.152 810.287 864.048 813.807 861.808C817.391 859.504 821.391 858.352 825.807 858.352ZM827.247 867.184C824.111 867.184 821.359 867.952 818.991 869.488C816.623 871.024 814.767 873.104 813.423 875.728C812.079 878.352 811.407 881.328 811.407 884.656C811.407 887.984 812.079 890.96 813.423 893.584C814.767 896.208 816.623 898.288 818.991 899.824C821.359 901.36 824.111 902.128 827.247 902.128C830.383 902.128 833.135 901.392 835.503 899.92C837.871 898.384 839.727 896.304 841.071 893.68C842.415 890.992 843.087 887.984 843.087 884.656C843.087 881.328 842.415 878.352 841.071 875.728C839.727 873.04 837.871 870.96 835.503 869.488C833.135 867.952 830.383 867.184 827.247 867.184ZM903.069 859.12C904.477 859.12 905.629 859.6 906.525 860.56C907.421 861.456 907.869 862.608 907.869 864.016V905.296C907.869 910.928 906.781 915.504 904.605 919.024C902.493 922.544 899.613 925.104 895.965 926.704C892.381 928.368 888.317 929.2 883.773 929.2C881.469 929.2 879.165 928.976 876.861 928.528C874.557 928.144 872.669 927.568 871.197 926.8C869.661 926.096 868.573 925.232 867.933 924.208C867.293 923.184 867.197 922.064 867.645 920.848C868.093 919.312 868.861 918.256 869.949 917.68C871.037 917.168 872.157 917.136 873.309 917.584C874.397 918.032 875.837 918.608 877.629 919.312C879.421 920.016 881.469 920.368 883.773 920.368C886.909 920.368 889.565 919.856 891.741 918.832C893.917 917.808 895.549 916.208 896.637 914.032C897.789 911.856 898.365 909.04 898.365 905.584V898.96L899.901 901.264C898.877 903.376 897.533 905.136 895.869 906.544C894.205 907.952 892.221 909.04 889.917 909.808C887.677 910.576 885.181 910.96 882.429 910.96C878.909 910.96 875.869 910.192 873.309 908.656C870.813 907.056 868.893 904.88 867.549 902.128C866.205 899.312 865.533 896.112 865.533 892.528V864.016C865.533 862.608 865.981 861.456 866.877 860.56C867.773 859.6 868.925 859.12 870.333 859.12C871.677 859.12 872.797 859.6 873.693 860.56C874.653 861.456 875.133 862.608 875.133 864.016V889.936C875.133 894.16 876.061 897.264 877.917 899.248C879.773 901.168 882.525 902.128 886.173 902.128C888.605 902.128 890.717 901.616 892.509 900.592C894.301 899.568 895.709 898.16 896.733 896.368C897.757 894.512 898.269 892.368 898.269 889.936V864.016C898.269 862.608 898.717 861.456 899.613 860.56C900.573 859.6 901.725 859.12 903.069 859.12Z" fill="#4CA771"/>
<line x1="140.5" y1="879.5" x2="552.5" y2="879.5" stroke="url(#paint0_linear_12_470)" stroke-width="15" stroke-linecap="round"/>
<path d="M710.544 472.618C657.983 420.057 586.695 390.529 512.363 390.529C438.03 390.529 366.742 420.057 314.181 472.618L512.363 670.8L710.544 472.618Z" fill="#F29342"/>
<path d="M663.372 519.122C623.322 479.072 569.003 456.572 512.363 456.572C455.724 456.572 401.405 479.072 361.355 519.122L512.363 670.131L663.372 519.122Z" fill="#F16E4F"/>
<path d="M608.636 573.712C582.98 548.056 548.182 533.643 511.899 533.643C475.616 533.643 440.819 548.056 415.162 573.712L511.899 670.449L608.636 573.712Z" fill="#E5525C"/>
<path d="M431.407 385.975C456.493 378.647 482.705 374.831 509.309 374.831C537.178 374.831 564.614 379.019 590.778 387.044L597.349 380.472C601.255 376.567 601.255 370.236 597.349 366.33L518.698 287.679C514.793 283.774 508.461 283.774 504.556 287.679L425.905 366.33C422 370.236 422 376.567 425.905 380.472L431.407 385.975Z" fill="url(#paint1_linear_12_470)"/>
<rect width="131.229" height="131.229" rx="20" transform="matrix(0.707106 0.707107 0.707106 -0.707107 418.76 168.793)" fill="url(#paint2_linear_12_470)"/>
<rect width="131.229" height="131.229" rx="20" transform="matrix(0.707106 0.707107 0.707106 -0.707107 520.906 271.329)" fill="url(#paint3_linear_12_470)"/>
<rect width="131.229" height="131.229" rx="20" transform="matrix(0.707106 0.707107 0.707106 -0.707107 623.441 373.866)" fill="url(#paint4_linear_12_470)"/>
<rect width="131.229" height="131.229" rx="20" transform="matrix(0.707106 0.707107 0.707106 -0.707107 316.297 270.866)" fill="url(#paint5_linear_12_470)"/>
<rect width="131.229" height="131.229" rx="20" transform="matrix(0.707106 0.707107 0.707106 -0.707107 214.225 372.938)" fill="url(#paint6_linear_12_470)"/>
<defs>
<linearGradient id="paint0_linear_12_470" x1="133" y1="887.5" x2="560" y2="887.5" gradientUnits="userSpaceOnUse">
<stop stop-color="#F29342"/>
<stop offset="0.7" stop-color="#4CA771"/>
<stop offset="1" stop-color="#2C786C"/>
</linearGradient>
<linearGradient id="paint1_linear_12_470" x1="429.72" y1="370.067" x2="603.759" y2="369.841" gradientUnits="userSpaceOnUse">
<stop stop-color="#2C786C"/>
<stop offset="1" stop-color="#4CA771"/>
</linearGradient>
<linearGradient id="paint2_linear_12_470" x1="5.33953" y1="10.0555" x2="128.244" y2="133.279" gradientUnits="userSpaceOnUse">
<stop stop-color="#2C786C"/>
<stop offset="1" stop-color="#4CA771"/>
</linearGradient>
<linearGradient id="paint3_linear_12_470" x1="5.33953" y1="10.0555" x2="128.244" y2="133.279" gradientUnits="userSpaceOnUse">
<stop stop-color="#2C786C"/>
<stop offset="1" stop-color="#4CA771"/>
</linearGradient>
<linearGradient id="paint4_linear_12_470" x1="5.33953" y1="10.0555" x2="128.244" y2="133.279" gradientUnits="userSpaceOnUse">
<stop stop-color="#2C786C"/>
<stop offset="1" stop-color="#4CA771"/>
</linearGradient>
<linearGradient id="paint5_linear_12_470" x1="5.33953" y1="10.0555" x2="128.244" y2="133.279" gradientUnits="userSpaceOnUse">
<stop stop-color="#2C786C"/>
<stop offset="1" stop-color="#4CA771"/>
</linearGradient>
<linearGradient id="paint6_linear_12_470" x1="5.33953" y1="10.0555" x2="128.244" y2="133.279" gradientUnits="userSpaceOnUse">
<stop stop-color="#2C786C"/>
<stop offset="1" stop-color="#4CA771"/>
</linearGradient>
</defs>
</svg>
