<svg width="2017" height="605" viewBox="0 0 2017 605" fill="none" xmlns="http://www.w3.org/2000/svg">
<path d="M501.544 396.618C448.983 344.057 377.695 314.529 303.363 314.529C229.03 314.529 157.742 344.057 105.181 396.618L303.363 594.8L501.544 396.618Z" fill="#F29342"/>
<path d="M454.372 443.122C414.322 403.072 360.003 380.572 303.363 380.572C246.724 380.572 192.405 403.072 152.355 443.122L303.363 594.131L454.372 443.122Z" fill="#F16E4F"/>
<path d="M399.636 497.712C373.98 472.056 339.182 457.643 302.899 457.643C266.616 457.643 231.819 472.056 206.162 497.712L302.899 594.449L399.636 497.712Z" fill="#E5525C"/>
<path d="M222.407 309.975C247.493 302.647 273.705 298.831 300.309 298.831C328.178 298.831 355.614 303.019 381.778 311.044L388.349 304.472C392.254 300.567 392.254 294.235 388.349 290.33L309.698 211.679C305.793 207.774 299.461 207.774 295.556 211.679L216.905 290.33C213 294.236 213 300.567 216.905 304.472L222.407 309.975Z" fill="url(#paint0_linear_46_22)"/>
<rect width="131.229" height="131.229" rx="20" transform="matrix(0.707106 0.707107 0.707106 -0.707107 209.76 92.793)" fill="url(#paint1_linear_46_22)"/>
<rect width="131.229" height="131.229" rx="20" transform="matrix(0.707106 0.707107 0.707106 -0.707107 311.906 195.329)" fill="url(#paint2_linear_46_22)"/>
<rect width="131.229" height="131.229" rx="20" transform="matrix(0.707106 0.707107 0.707106 -0.707107 414.441 297.866)" fill="url(#paint3_linear_46_22)"/>
<rect width="131.229" height="131.229" rx="20" transform="matrix(0.707106 0.707107 0.707106 -0.707107 107.297 194.866)" fill="url(#paint4_linear_46_22)"/>
<rect width="131.229" height="131.229" rx="20" transform="matrix(0.707106 0.707107 0.707106 -0.707107 5.22461 296.938)" fill="url(#paint5_linear_46_22)"/>
<path d="M708.512 256.72C695.456 256.72 683.851 254.907 673.696 251.28C663.541 247.653 653.84 241.669 644.592 233.328C642.597 231.877 641.056 230.155 639.968 228.16C639.061 225.984 638.608 223.808 638.608 221.632C638.608 218.187 639.877 215.104 642.416 212.384C644.955 209.664 648.128 208.304 651.936 208.304C654.837 208.304 657.557 209.301 660.096 211.296C666.987 217.643 674.149 222.448 681.584 225.712C689.2 228.976 698.085 230.608 708.24 230.608C715.493 230.608 722.112 229.429 728.096 227.072C734.261 224.715 739.157 221.541 742.784 217.552C746.411 213.563 748.224 208.939 748.224 203.68C748.224 197.152 746.32 191.803 742.512 187.632C738.885 183.28 733.536 179.744 726.464 177.024C719.573 174.123 711.232 171.675 701.44 169.68C692.373 168.048 684.213 165.781 676.96 162.88C669.888 159.979 663.813 156.352 658.736 152C653.659 147.467 649.76 142.117 647.04 135.952C644.32 129.787 642.96 122.624 642.96 114.464C642.96 103.403 645.861 93.8827 651.664 85.904C657.467 77.9253 665.355 71.76 675.328 67.408C685.301 63.056 696.544 60.88 709.056 60.88C720.48 60.88 731.179 62.6933 741.152 66.32C751.125 69.7653 759.195 74.48 765.36 80.464C769.712 84.272 771.888 88.352 771.888 92.704C771.888 95.968 770.528 99.0507 767.808 101.952C765.269 104.672 762.277 106.032 758.832 106.032C756.293 106.032 754.117 105.307 752.304 103.856C749.403 100.773 745.504 98.0533 740.608 95.696C735.712 93.1573 730.453 91.072 724.832 89.44C719.392 87.808 714.133 86.992 709.056 86.992C700.896 86.992 693.915 88.1707 688.112 90.528C682.309 92.704 677.867 95.7867 674.784 99.776C671.701 103.584 670.16 108.117 670.16 113.376C670.16 119.541 671.883 124.619 675.328 128.608C678.955 132.597 683.941 135.861 690.288 138.4C696.635 140.757 703.888 142.933 712.048 144.928C722.021 147.104 730.907 149.552 738.704 152.272C746.683 154.992 753.392 158.528 758.832 162.88C764.272 167.051 768.443 172.309 771.344 178.656C774.245 185.003 775.696 192.891 775.696 202.32C775.696 213.2 772.613 222.72 766.448 230.88C760.283 239.04 752.123 245.387 741.968 249.92C731.995 254.453 720.843 256.72 708.512 256.72ZM912.773 110.928C916.581 110.928 919.755 112.288 922.293 115.008C925.013 117.547 926.373 120.811 926.373 124.8V196.336C926.373 215.195 921.115 229.973 910.597 240.672C900.08 251.189 885.211 256.448 865.989 256.448C846.949 256.448 832.171 251.189 821.653 240.672C811.317 229.973 806.149 215.195 806.149 196.336V124.8C806.149 120.811 807.419 117.547 809.957 115.008C812.496 112.288 815.76 110.928 819.749 110.928C823.557 110.928 826.731 112.288 829.269 115.008C831.989 117.547 833.349 120.811 833.349 124.8V196.336C833.349 208.123 836.069 216.917 841.509 222.72C847.131 228.523 855.291 231.424 865.989 231.424C876.869 231.424 885.12 228.523 890.741 222.72C896.363 216.917 899.173 208.123 899.173 196.336V124.8C899.173 120.811 900.443 117.547 902.981 115.008C905.52 112.288 908.784 110.928 912.773 110.928ZM977.796 254C973.807 254 970.543 252.731 968.004 250.192C965.466 247.472 964.196 244.117 964.196 240.128V124.8C964.196 120.811 965.466 117.547 968.004 115.008C970.543 112.288 973.807 110.928 977.796 110.928C981.604 110.928 984.778 112.288 987.316 115.008C990.036 117.547 991.396 120.811 991.396 124.8V155.264L988.676 143.568C990.127 138.491 992.303 133.776 995.204 129.424C998.287 125.072 1001.91 121.264 1006.08 118C1010.25 114.736 1014.88 112.197 1019.96 110.384C1025.21 108.571 1030.65 107.664 1036.28 107.664C1040.99 107.664 1045.07 108.933 1048.52 111.472C1051.96 114.011 1053.68 117.184 1053.68 120.992C1053.68 125.888 1052.41 129.515 1049.88 131.872C1047.34 134.048 1044.53 135.136 1041.44 135.136C1038.72 135.136 1036.09 134.592 1033.56 133.504C1031.02 132.235 1028.03 131.6 1024.58 131.6C1020.77 131.6 1016.87 132.597 1012.88 134.592C1008.89 136.587 1005.27 139.579 1002 143.568C998.74 147.376 996.111 151.909 994.116 157.168C992.303 162.427 991.396 168.32 991.396 174.848V240.128C991.396 244.117 990.036 247.472 987.316 250.192C984.778 252.731 981.604 254 977.796 254ZM1184.24 109.84C1188.23 109.84 1191.49 111.2 1194.03 113.92C1196.57 116.459 1197.84 119.723 1197.84 123.712V240.672C1197.84 256.629 1194.75 269.595 1188.59 279.568C1182.6 289.541 1174.44 296.795 1164.11 301.328C1153.95 306.043 1142.44 308.4 1129.56 308.4C1123.04 308.4 1116.51 307.765 1109.98 306.496C1103.45 305.408 1098.1 303.776 1093.93 301.6C1089.58 299.605 1086.5 297.157 1084.68 294.256C1082.87 291.355 1082.6 288.181 1083.87 284.736C1085.14 280.384 1087.31 277.392 1090.4 275.76C1093.48 274.309 1096.65 274.219 1099.92 275.488C1103 276.757 1107.08 278.389 1112.16 280.384C1117.23 282.379 1123.04 283.376 1129.56 283.376C1138.45 283.376 1145.97 281.925 1152.14 279.024C1158.31 276.123 1162.93 271.589 1166.01 265.424C1169.28 259.259 1170.91 251.28 1170.91 241.488V222.72L1175.26 229.248C1172.36 235.232 1168.55 240.219 1163.84 244.208C1159.12 248.197 1153.5 251.28 1146.97 253.456C1140.63 255.632 1133.55 256.72 1125.76 256.72C1115.78 256.72 1107.17 254.544 1099.92 250.192C1092.84 245.659 1087.4 239.493 1083.6 231.696C1079.79 223.717 1077.88 214.651 1077.88 204.496V123.712C1077.88 119.723 1079.15 116.459 1081.69 113.92C1084.23 111.2 1087.49 109.84 1091.48 109.84C1095.29 109.84 1098.47 111.2 1101 113.92C1103.72 116.459 1105.08 119.723 1105.08 123.712V197.152C1105.08 209.12 1107.71 217.915 1112.97 223.536C1118.23 228.976 1126.03 231.696 1136.36 231.696C1143.25 231.696 1149.24 230.245 1154.32 227.344C1159.39 224.443 1163.38 220.453 1166.28 215.376C1169.19 210.117 1170.64 204.043 1170.64 197.152V123.712C1170.64 119.723 1171.91 116.459 1174.44 113.92C1177.16 111.2 1180.43 109.84 1184.24 109.84ZM1353.16 108.752C1357.15 108.752 1360.42 110.112 1362.95 112.832C1365.49 115.371 1366.76 118.635 1366.76 122.624V240.128C1366.76 244.117 1365.49 247.472 1362.95 250.192C1360.42 252.731 1357.15 254 1353.16 254C1349.35 254 1346.09 252.731 1343.37 250.192C1340.83 247.472 1339.56 244.117 1339.56 240.128V220.544L1345.27 221.36C1345.27 224.624 1343.91 228.251 1341.19 232.24C1338.66 236.229 1335.12 240.128 1330.59 243.936C1326.05 247.563 1320.7 250.645 1314.54 253.184C1308.37 255.541 1301.75 256.72 1294.68 256.72C1282.17 256.72 1270.93 253.547 1260.95 247.2C1250.98 240.672 1243.09 231.787 1237.29 220.544C1231.49 209.301 1228.59 196.517 1228.59 182.192C1228.59 167.504 1231.49 154.629 1237.29 143.568C1243.09 132.325 1250.89 123.531 1260.68 117.184C1270.66 110.837 1281.72 107.664 1293.87 107.664C1301.66 107.664 1308.83 108.933 1315.35 111.472C1322.06 114.011 1327.87 117.275 1332.76 121.264C1337.66 125.253 1341.38 129.515 1343.91 134.048C1346.63 138.4 1347.99 142.571 1347.99 146.56L1339.56 147.376V122.624C1339.56 118.816 1340.83 115.552 1343.37 112.832C1346.09 110.112 1349.35 108.752 1353.16 108.752ZM1297.67 231.696C1306.2 231.696 1313.72 229.52 1320.25 225.168C1326.78 220.816 1331.86 214.923 1335.48 207.488C1339.11 199.872 1340.92 191.44 1340.92 182.192C1340.92 172.763 1339.11 164.331 1335.48 156.896C1331.86 149.461 1326.78 143.568 1320.25 139.216C1313.72 134.864 1306.2 132.688 1297.67 132.688C1289.33 132.688 1281.9 134.864 1275.37 139.216C1269.02 143.568 1263.95 149.461 1260.14 156.896C1256.51 164.331 1254.7 172.763 1254.7 182.192C1254.7 191.44 1256.51 199.872 1260.14 207.488C1263.95 214.923 1269.02 220.816 1275.37 225.168C1281.9 229.52 1289.33 231.696 1297.67 231.696Z" fill="#F29342"/>
<path d="M1396.44 231.696C1394.8 229.157 1394.08 226.256 1394.26 222.992C1394.44 219.547 1396.35 216.645 1399.97 214.288C1402.51 212.656 1405.14 212.021 1407.86 212.384C1410.76 212.565 1413.48 213.925 1416.02 216.464C1421.1 222.085 1426.72 226.528 1432.88 229.792C1439.23 233.056 1446.85 234.688 1455.73 234.688C1459.36 234.507 1463.08 233.963 1466.88 233.056C1470.69 231.968 1473.96 230.155 1476.68 227.616C1479.4 224.896 1480.76 220.997 1480.76 215.92C1480.76 211.387 1479.31 207.76 1476.4 205.04C1473.5 202.32 1469.69 200.144 1464.98 198.512C1460.27 196.699 1455.19 195.067 1449.75 193.616C1443.95 191.984 1438.05 190.171 1432.07 188.176C1426.27 186.181 1421.01 183.643 1416.29 180.56C1411.58 177.296 1407.68 173.125 1404.6 168.048C1401.69 162.971 1400.24 156.715 1400.24 149.28C1400.24 140.757 1402.6 133.413 1407.32 127.248C1412.21 121.083 1418.47 116.277 1426.08 112.832C1433.88 109.387 1442.31 107.664 1451.38 107.664C1456.64 107.664 1462.17 108.389 1467.97 109.84C1473.77 111.109 1479.4 113.195 1484.84 116.096C1490.28 118.997 1494.99 122.805 1498.98 127.52C1500.79 129.877 1501.79 132.688 1501.97 135.952C1502.33 139.216 1500.88 142.117 1497.62 144.656C1495.44 146.469 1492.81 147.285 1489.73 147.104C1486.65 146.923 1484.11 145.925 1482.12 144.112C1478.67 139.76 1474.23 136.405 1468.79 134.048C1463.35 131.509 1457.18 130.24 1450.29 130.24C1446.85 130.24 1443.22 130.784 1439.41 131.872C1435.79 132.779 1432.7 134.501 1430.16 137.04C1427.63 139.579 1426.36 143.296 1426.36 148.192C1426.36 152.725 1427.81 156.352 1430.71 159.072C1433.79 161.792 1437.78 164.059 1442.68 165.872C1447.57 167.685 1452.92 169.317 1458.72 170.768C1464.35 172.219 1469.88 173.941 1475.32 175.936C1480.94 177.931 1485.92 180.56 1490.28 183.824C1494.81 186.907 1498.44 190.987 1501.16 196.064C1504.06 200.96 1505.51 207.216 1505.51 214.832C1505.51 223.717 1502.88 231.333 1497.62 237.68C1492.54 243.845 1486.01 248.56 1478.04 251.824C1470.24 255.088 1461.99 256.72 1453.28 256.72C1442.95 256.72 1432.61 254.907 1422.28 251.28C1412.12 247.472 1403.51 240.944 1396.44 231.696ZM1654.12 108.752C1658.11 108.752 1661.37 110.112 1663.91 112.832C1666.45 115.371 1667.72 118.635 1667.72 122.624V240.128C1667.72 244.117 1666.45 247.472 1663.91 250.192C1661.37 252.731 1658.11 254 1654.12 254C1650.31 254 1647.04 252.731 1644.32 250.192C1641.79 247.472 1640.52 244.117 1640.52 240.128V220.544L1646.23 221.36C1646.23 224.624 1644.87 228.251 1642.15 232.24C1639.61 236.229 1636.07 240.128 1631.54 243.936C1627.01 247.563 1621.66 250.645 1615.49 253.184C1609.33 255.541 1602.71 256.72 1595.64 256.72C1583.12 256.72 1571.88 253.547 1561.91 247.2C1551.93 240.672 1544.05 231.787 1538.24 220.544C1532.44 209.301 1529.54 196.517 1529.54 182.192C1529.54 167.504 1532.44 154.629 1538.24 143.568C1544.05 132.325 1551.84 123.531 1561.64 117.184C1571.61 110.837 1582.67 107.664 1594.82 107.664C1602.62 107.664 1609.78 108.933 1616.31 111.472C1623.02 114.011 1628.82 117.275 1633.72 121.264C1638.61 125.253 1642.33 129.515 1644.87 134.048C1647.59 138.4 1648.95 142.571 1648.95 146.56L1640.52 147.376V122.624C1640.52 118.816 1641.79 115.552 1644.32 112.832C1647.04 110.112 1650.31 108.752 1654.12 108.752ZM1598.63 231.696C1607.15 231.696 1614.68 229.52 1621.2 225.168C1627.73 220.816 1632.81 214.923 1636.44 207.488C1640.06 199.872 1641.88 191.44 1641.88 182.192C1641.88 172.763 1640.06 164.331 1636.44 156.896C1632.81 149.461 1627.73 143.568 1621.2 139.216C1614.68 134.864 1607.15 132.688 1598.63 132.688C1590.29 132.688 1582.85 134.864 1576.32 139.216C1569.98 143.568 1564.9 149.461 1561.09 156.896C1557.47 164.331 1555.65 172.763 1555.65 182.192C1555.65 191.44 1557.47 199.872 1561.09 207.488C1564.9 214.923 1569.98 220.816 1576.32 225.168C1582.85 229.52 1590.29 231.696 1598.63 231.696ZM1703.92 112.56H1767.84C1771.46 112.56 1774.46 113.829 1776.81 116.368C1779.35 118.725 1780.62 121.717 1780.62 125.344C1780.62 128.789 1779.35 131.691 1776.81 134.048C1774.46 136.405 1771.46 137.584 1767.84 137.584H1703.92C1700.29 137.584 1697.21 136.405 1694.67 134.048C1692.31 131.509 1691.13 128.517 1691.13 125.072C1691.13 121.445 1692.31 118.453 1694.67 116.096C1697.21 113.739 1700.29 112.56 1703.92 112.56ZM1732.48 77.2C1736.47 77.2 1739.73 78.56 1742.27 81.28C1744.81 83.8187 1746.08 87.0827 1746.08 91.072V217.28C1746.08 220.544 1746.62 223.173 1747.71 225.168C1748.8 227.163 1750.25 228.523 1752.06 229.248C1754.06 229.973 1756.05 230.336 1758.05 230.336C1760.04 230.336 1761.76 229.973 1763.21 229.248C1764.85 228.523 1766.75 228.16 1768.93 228.16C1771.1 228.16 1773.1 229.157 1774.91 231.152C1776.72 233.147 1777.63 235.867 1777.63 239.312C1777.63 243.664 1775.27 247.2 1770.56 249.92C1765.84 252.64 1760.77 254 1755.33 254C1752.24 254 1748.62 253.728 1744.45 253.184C1740.27 252.64 1736.19 251.28 1732.21 249.104C1728.4 246.928 1725.22 243.483 1722.69 238.768C1720.15 233.872 1718.88 227.072 1718.88 218.368V91.072C1718.88 87.0827 1720.15 83.8187 1722.69 81.28C1725.41 78.56 1728.67 77.2 1732.48 77.2ZM1882.82 108.48C1895.34 108.48 1905.04 111.2 1911.93 116.64C1918.82 121.899 1923.62 129.061 1926.34 138.128C1929.24 147.195 1930.7 157.168 1930.7 168.048V240.128C1930.7 244.117 1929.34 247.472 1926.62 250.192C1924.08 252.731 1920.9 254 1917.1 254C1913.11 254 1909.84 252.731 1907.3 250.192C1904.76 247.472 1903.5 244.117 1903.5 240.128V168.048C1903.5 161.701 1902.59 155.899 1900.78 150.64C1899.14 145.381 1896.15 141.211 1891.8 138.128C1887.63 135.045 1881.74 133.504 1874.12 133.504C1867.05 133.504 1860.7 135.045 1855.08 138.128C1849.64 141.211 1845.38 145.381 1842.3 150.64C1839.39 155.899 1837.94 161.701 1837.94 168.048V240.128C1837.94 244.117 1836.58 247.472 1833.86 250.192C1831.32 252.731 1828.15 254 1824.34 254C1820.35 254 1817.09 252.731 1814.55 250.192C1812.01 247.472 1810.74 244.117 1810.74 240.128V66.592C1810.74 62.6027 1812.01 59.3387 1814.55 56.8C1817.09 54.08 1820.35 52.72 1824.34 52.72C1828.15 52.72 1831.32 54.08 1833.86 56.8C1836.58 59.3387 1837.94 62.6027 1837.94 66.592V140.848L1833.05 143.568C1834.32 139.579 1836.4 135.499 1839.3 131.328C1842.39 127.157 1846.1 123.349 1850.46 119.904C1854.99 116.459 1859.98 113.739 1865.42 111.744C1870.86 109.568 1876.66 108.48 1882.82 108.48ZM1994.09 240.128C1994.09 244.117 1992.82 247.472 1990.28 250.192C1987.75 252.731 1984.48 254 1980.49 254C1976.68 254 1973.42 252.731 1970.7 250.192C1968.16 247.472 1966.89 244.117 1966.89 240.128V123.712C1966.89 119.723 1968.16 116.459 1970.7 113.92C1973.42 111.2 1976.68 109.84 1980.49 109.84C1984.48 109.84 1987.75 111.2 1990.28 113.92C1992.82 116.459 1994.09 119.723 1994.09 123.712V240.128ZM1980.22 91.888C1974.96 91.888 1971.15 90.9813 1968.8 89.168C1966.44 87.1733 1965.26 83.9093 1965.26 79.376V75.024C1965.26 70.4907 1966.53 67.3173 1969.07 65.504C1971.61 63.6907 1975.42 62.784 1980.49 62.784C1985.93 62.784 1989.83 63.7813 1992.19 65.776C1994.55 67.5893 1995.72 70.672 1995.72 75.024V79.376C1995.72 84.0907 1994.46 87.3547 1991.92 89.168C1989.56 90.9813 1985.66 91.888 1980.22 91.888Z" fill="#4CA771"/>
<path d="M1461.7 416.6H1521.22C1523.62 416.6 1525.63 417.403 1527.24 419.008C1528.96 420.613 1529.82 422.62 1529.82 425.028C1529.82 427.436 1528.96 429.385 1527.24 430.876C1525.63 432.367 1523.62 433.112 1521.22 433.112H1469.27L1470.99 430.188V468.716L1469.44 466.996H1513.48C1515.88 466.996 1517.89 467.799 1519.5 469.404C1521.22 471.009 1522.08 473.073 1522.08 475.596C1522.08 478.004 1521.22 479.953 1519.5 481.444C1517.89 482.935 1515.88 483.68 1513.48 483.68H1469.79L1470.99 482.132V521.864L1469.79 520.488H1521.22C1523.62 520.488 1525.63 521.348 1527.24 523.068C1528.96 524.673 1529.82 526.565 1529.82 528.744C1529.82 531.152 1528.96 533.159 1527.24 534.764C1525.63 536.255 1523.62 537 1521.22 537H1461.7C1459.3 537 1457.23 536.197 1455.51 534.592C1453.79 532.872 1452.93 530.751 1452.93 528.228V425.372C1452.93 422.849 1453.79 420.785 1455.51 419.18C1457.23 417.46 1459.3 416.6 1461.7 416.6ZM1595.91 444.464C1604.06 444.464 1610.36 446.184 1614.83 449.624C1619.31 452.949 1622.4 457.479 1624.12 463.212C1625.96 468.831 1626.87 475.137 1626.87 482.132V528.228C1626.87 530.751 1626.01 532.872 1624.29 534.592C1622.69 536.197 1620.68 537 1618.27 537C1615.75 537 1613.69 536.197 1612.08 534.592C1610.48 532.872 1609.67 530.751 1609.67 528.228V482.304C1609.67 478.176 1609.1 474.507 1607.95 471.296C1606.81 467.971 1604.8 465.333 1601.93 463.384C1599.18 461.32 1595.28 460.288 1590.24 460.288C1585.54 460.288 1581.41 461.32 1577.85 463.384C1574.3 465.333 1571.49 467.971 1569.43 471.296C1567.48 474.507 1566.5 478.176 1566.5 482.304V528.228C1566.5 530.751 1565.64 532.872 1563.92 534.592C1562.32 536.197 1560.31 537 1557.9 537C1555.38 537 1553.32 536.197 1551.71 534.592C1550.1 532.872 1549.3 530.751 1549.3 528.228V455.3C1549.3 452.777 1550.1 450.713 1551.71 449.108C1553.32 447.388 1555.38 446.528 1557.9 446.528C1560.31 446.528 1562.32 447.388 1563.92 449.108C1565.64 450.713 1566.5 452.777 1566.5 455.3V464.932L1563.41 466.652C1564.21 464.129 1565.58 461.607 1567.53 459.084C1569.6 456.447 1572.06 454.039 1574.93 451.86C1577.8 449.567 1581.01 447.789 1584.56 446.528C1588.12 445.152 1591.9 444.464 1595.91 444.464ZM1692.89 538.72C1683.38 538.72 1675.12 536.771 1668.13 532.872C1661.13 528.859 1655.69 523.412 1651.79 516.532C1648 509.537 1646.11 501.568 1646.11 492.624C1646.11 482.533 1648.12 473.933 1652.13 466.824C1656.26 459.6 1661.59 454.096 1668.13 450.312C1674.66 446.413 1681.6 444.464 1688.94 444.464C1694.56 444.464 1699.89 445.611 1704.93 447.904C1709.98 450.083 1714.45 453.179 1718.35 457.192C1722.36 461.091 1725.52 465.735 1727.81 471.124C1730.1 476.399 1731.31 482.189 1731.42 488.496C1731.31 490.789 1730.39 492.681 1728.67 494.172C1726.95 495.663 1724.94 496.408 1722.65 496.408H1655.74L1651.61 481.788H1716.29L1713.02 484.884V480.584C1712.79 476.571 1711.47 473.073 1709.06 470.092C1706.65 466.996 1703.67 464.645 1700.12 463.04C1696.56 461.32 1692.84 460.46 1688.94 460.46C1685.5 460.46 1682.17 461.033 1678.96 462.18C1675.87 463.212 1673.06 464.932 1670.53 467.34C1668.13 469.748 1666.18 472.959 1664.69 476.972C1663.31 480.871 1662.62 485.744 1662.62 491.592C1662.62 497.899 1663.94 503.403 1666.58 508.104C1669.22 512.805 1672.77 516.475 1677.24 519.112C1681.71 521.635 1686.65 522.896 1692.03 522.896C1696.28 522.896 1699.77 522.495 1702.53 521.692C1705.28 520.775 1707.57 519.685 1709.41 518.424C1711.24 517.163 1712.85 515.959 1714.22 514.812C1715.94 513.78 1717.66 513.264 1719.38 513.264C1721.45 513.264 1723.17 514.009 1724.54 515.5C1725.92 516.876 1726.61 518.539 1726.61 520.488C1726.61 523.011 1725.35 525.304 1722.82 527.368C1719.73 530.349 1715.43 532.987 1709.92 535.28C1704.53 537.573 1698.86 538.72 1692.89 538.72ZM1759.46 537C1756.94 537 1754.88 536.197 1753.27 534.592C1751.67 532.872 1750.86 530.751 1750.86 528.228V455.3C1750.86 452.777 1751.67 450.713 1753.27 449.108C1754.88 447.388 1756.94 446.528 1759.46 446.528C1761.87 446.528 1763.88 447.388 1765.48 449.108C1767.2 450.713 1768.06 452.777 1768.06 455.3V474.564L1766.34 467.168C1767.26 463.957 1768.64 460.976 1770.47 458.224C1772.42 455.472 1774.71 453.064 1777.35 451C1779.99 448.936 1782.91 447.331 1786.12 446.184C1789.45 445.037 1792.89 444.464 1796.44 444.464C1799.43 444.464 1802.01 445.267 1804.18 446.872C1806.36 448.477 1807.45 450.484 1807.45 452.892C1807.45 455.988 1806.65 458.281 1805.04 459.772C1803.44 461.148 1801.66 461.836 1799.71 461.836C1797.99 461.836 1796.33 461.492 1794.72 460.804C1793.12 460.001 1791.23 459.6 1789.05 459.6C1786.64 459.6 1784.17 460.231 1781.65 461.492C1779.13 462.753 1776.84 464.645 1774.77 467.168C1772.71 469.576 1771.05 472.443 1769.78 475.768C1768.64 479.093 1768.06 482.82 1768.06 486.948V528.228C1768.06 530.751 1767.2 532.872 1765.48 534.592C1763.88 536.197 1761.87 537 1759.46 537ZM1857.9 444.464C1862.83 444.464 1867.36 445.267 1871.49 446.872C1875.62 448.477 1879.17 450.541 1882.16 453.064C1885.25 455.472 1887.66 457.995 1889.38 460.632C1891.1 463.269 1891.96 465.563 1891.96 467.512L1888 467.684V453.924C1888 451.516 1888.81 449.452 1890.41 447.732C1892.02 446.012 1894.08 445.152 1896.6 445.152C1899.13 445.152 1901.19 446.012 1902.8 447.732C1904.4 449.337 1905.2 451.401 1905.2 453.924V529.776C1905.2 539.523 1903.14 547.435 1899.01 553.512C1894.88 559.704 1889.38 564.233 1882.5 567.1C1875.73 569.967 1868.28 571.4 1860.14 571.4C1857.27 571.4 1853.89 570.999 1849.99 570.196C1846.09 569.508 1842.48 568.648 1839.16 567.616C1835.94 566.584 1833.71 565.552 1832.45 564.52C1829.81 563.144 1828.03 561.539 1827.12 559.704C1826.31 557.869 1826.31 556.035 1827.12 554.2C1828.26 551.677 1829.81 550.129 1831.76 549.556C1833.71 548.983 1835.94 549.155 1838.47 550.072C1839.61 550.416 1841.39 551.047 1843.8 551.964C1846.21 552.881 1848.9 553.684 1851.88 554.372C1854.86 555.175 1857.67 555.576 1860.31 555.576C1869.48 555.576 1876.36 553.455 1880.95 549.212C1885.65 544.969 1888 539.179 1888 531.84V516.36L1889.9 517.564C1889.55 519.972 1888.46 522.437 1886.63 524.96C1884.91 527.368 1882.61 529.604 1879.75 531.668C1876.88 533.732 1873.56 535.452 1869.77 536.828C1866.1 538.089 1862.32 538.72 1858.42 538.72C1850.28 538.72 1843 536.713 1836.58 532.7C1830.15 528.572 1825.05 523.011 1821.27 516.016C1817.48 508.907 1815.59 500.765 1815.59 491.592C1815.59 482.419 1817.48 474.335 1821.27 467.34C1825.05 460.231 1830.1 454.669 1836.4 450.656C1842.82 446.528 1849.99 444.464 1857.9 444.464ZM1860.48 460.288C1854.86 460.288 1849.93 461.664 1845.69 464.416C1841.45 467.168 1838.12 470.895 1835.72 475.596C1833.31 480.297 1832.1 485.629 1832.1 491.592C1832.1 497.555 1833.31 502.887 1835.72 507.588C1838.12 512.289 1841.45 516.016 1845.69 518.768C1849.93 521.52 1854.86 522.896 1860.48 522.896C1866.1 522.896 1871.03 521.577 1875.28 518.94C1879.52 516.188 1882.84 512.461 1885.25 507.76C1887.66 502.944 1888.86 497.555 1888.86 491.592C1888.86 485.629 1887.66 480.297 1885.25 475.596C1882.84 470.78 1879.52 467.053 1875.28 464.416C1871.03 461.664 1866.1 460.288 1860.48 460.288ZM1996.33 445.84C1998.85 445.84 2000.92 446.7 2002.52 448.42C2004.13 450.025 2004.93 452.089 2004.93 454.612V528.572C2004.93 538.663 2002.98 546.861 1999.08 553.168C1995.3 559.475 1990.14 564.061 1983.6 566.928C1977.18 569.909 1969.9 571.4 1961.76 571.4C1957.63 571.4 1953.5 570.999 1949.38 570.196C1945.25 569.508 1941.86 568.476 1939.23 567.1C1936.48 565.839 1934.53 564.291 1933.38 562.456C1932.23 560.621 1932.06 558.615 1932.86 556.436C1933.67 553.684 1935.04 551.792 1936.99 550.76C1938.94 549.843 1940.95 549.785 1943.01 550.588C1944.96 551.391 1947.54 552.423 1950.75 553.684C1953.96 554.945 1957.63 555.576 1961.76 555.576C1967.38 555.576 1972.14 554.659 1976.04 552.824C1979.93 550.989 1982.86 548.123 1984.81 544.224C1986.87 540.325 1987.9 535.28 1987.9 529.088V517.22L1990.66 521.348C1988.82 525.132 1986.41 528.285 1983.43 530.808C1980.45 533.331 1976.9 535.28 1972.77 536.656C1968.75 538.032 1964.28 538.72 1959.35 538.72C1953.04 538.72 1947.6 537.344 1943.01 534.592C1938.54 531.725 1935.1 527.827 1932.69 522.896C1930.28 517.851 1929.08 512.117 1929.08 505.696V454.612C1929.08 452.089 1929.88 450.025 1931.49 448.42C1933.09 446.7 1935.16 445.84 1937.68 445.84C1940.09 445.84 1942.09 446.7 1943.7 448.42C1945.42 450.025 1946.28 452.089 1946.28 454.612V501.052C1946.28 508.62 1947.94 514.181 1951.27 517.736C1954.59 521.176 1959.52 522.896 1966.06 522.896C1970.42 522.896 1974.2 521.979 1977.41 520.144C1980.62 518.309 1983.14 515.787 1984.98 512.576C1986.81 509.251 1987.73 505.409 1987.73 501.052V454.612C1987.73 452.089 1988.53 450.025 1990.14 448.42C1991.86 446.7 1993.92 445.84 1996.33 445.84Z" fill="#4CA771"/>
<line x1="635.5" y1="476.5" x2="1400.5" y2="476.5" stroke="url(#paint6_linear_46_22)" stroke-width="15" stroke-linecap="round"/>
<defs>
<linearGradient id="paint0_linear_46_22" x1="220.72" y1="294.067" x2="394.759" y2="293.841" gradientUnits="userSpaceOnUse">
<stop stop-color="#2C786C"/>
<stop offset="1" stop-color="#4CA771"/>
</linearGradient>
<linearGradient id="paint1_linear_46_22" x1="5.33953" y1="10.0555" x2="128.244" y2="133.279" gradientUnits="userSpaceOnUse">
<stop stop-color="#2C786C"/>
<stop offset="1" stop-color="#4CA771"/>
</linearGradient>
<linearGradient id="paint2_linear_46_22" x1="5.33953" y1="10.0555" x2="128.244" y2="133.279" gradientUnits="userSpaceOnUse">
<stop stop-color="#2C786C"/>
<stop offset="1" stop-color="#4CA771"/>
</linearGradient>
<linearGradient id="paint3_linear_46_22" x1="5.33953" y1="10.0555" x2="128.244" y2="133.279" gradientUnits="userSpaceOnUse">
<stop stop-color="#2C786C"/>
<stop offset="1" stop-color="#4CA771"/>
</linearGradient>
<linearGradient id="paint4_linear_46_22" x1="5.33953" y1="10.0555" x2="128.244" y2="133.279" gradientUnits="userSpaceOnUse">
<stop stop-color="#2C786C"/>
<stop offset="1" stop-color="#4CA771"/>
</linearGradient>
<linearGradient id="paint5_linear_46_22" x1="5.33953" y1="10.0555" x2="128.244" y2="133.279" gradientUnits="userSpaceOnUse">
<stop stop-color="#2C786C"/>
<stop offset="1" stop-color="#4CA771"/>
</linearGradient>
<linearGradient id="paint6_linear_46_22" x1="628" y1="484.5" x2="1408" y2="484.5" gradientUnits="userSpaceOnUse">
<stop stop-color="#F29342"/>
<stop offset="0.7" stop-color="#4CA771"/>
<stop offset="1" stop-color="#2C786C"/>
</linearGradient>
</defs>
</svg>
